# xmcd
#
# Track frame offsets:
# 150
# 19440
# 43780
# 65539
# 88167
# 112860
# 136562
# 164217
# 186084
# 208533
#
# Disc length: 3005 seconds
#
# Revision: 1
# Processed by: cddbd v1.5.1PL0 Copyright (c) Steve Scherf et al.
# Submitted via: Easy CD Ripper v2.27
#
DISCID=8b0bbb0a
DTITLE=張惠妹 - 妹力四射
DYEAR=1998
DGENRE=Blues
TTITLE0=天天天藍
TTITLE1=站在高崗上
TTITLE2=不要告別
TTITLE3=戀曲1990
TTITLE4=You Make Me Free
TTITLE5=沒有煙抽的日子
TTITLE6=哭砂
TTITLE7=跟著感覺走
TTITLE8=我無所謂
TTITLE9=熱線你和我
EXTD=
EXTT0=
EXTT1=
EXTT2=
EXTT3=
EXTT4=
EXTT5=
EXTT6=
EXTT7=
EXTT8=
EXTT9=
PLAYORDER=
